<?xml version="1.0" standalone="no"?><!DOCTYPE svg PUBLIC "-//W3C//DTD SVG 1.1//EN" "http://www.w3.org/Graphics/SVG/1.1/DTD/svg11.dtd"><svg t="1621929869503" class="icon" viewBox="0 0 1024 1024" version="1.1" xmlns="http://www.w3.org/2000/svg" p-id="2443" xmlns:xlink="http://www.w3.org/1999/xlink" width="200" height="200"><defs><style type="text/css"></style></defs><path d="M341.333333 362.666667v128a21.333333 21.333333 0 1 0 42.666667 0v-128a21.333333 21.333333 0 0 0-42.666667 0zM640 362.666667v128a21.333333 21.333333 0 1 0 42.666667 0v-128a21.333333 21.333333 0 1 0-42.666667 0zM324.266667 653.013333A234.581333 234.581333 0 0 0 512 746.666667c74.666667 0 143.573333-35.2 187.733333-93.866667a21.333333 21.333333 0 0 0-34.048-25.6 191.914667 191.914667 0 0 1-153.685333 76.8 191.914667 191.914667 0 0 1-153.6-76.672 21.333333 21.333333 0 1 0-34.048 25.685333z" p-id="2444"></path><path d="M758.272 883.413333c120.192-69.461333 180.736-199.424 180.736-370.176 0-240.512-183.466667-427.733333-426.88-427.733333-243.285333 0-426.453333 187.136-426.453333 427.733333 0 112.938667 45.952 218.922667 126.848 298.325334a21.333333 21.333333 0 0 1-29.909334 30.464c-88.917333-87.296-139.605333-204.202667-139.605333-328.789334 0-263.978667 202.069333-470.4 469.12-470.4 267.136 0 469.546667 206.506667 469.546667 470.4 0 190.592-71.637333 338.176-214.442667 413.994667a64 64 0 1 1-8.96-43.818667z" p-id="2445"></path></svg>